<svg width="44" height="48" viewBox="0 0 44 48" fill="none" xmlns="http://www.w3.org/2000/svg">
<rect width="43.0173" height="47.9572" fill="black" fill-opacity="0"/>
<path d="M36.7057 12.5521C39.3551 21.5158 35.5067 36.4652 26.0067 41.2152C20.5067 43.9652 7.08821 42.9125 4.43873 33.9488C1.78924 24.9851 7.79068 16.8076 19.0067 15.7152C29.2907 15.7152 34.0562 3.58841 36.7057 12.5521Z" fill="url(#paint0_linear)"/>
<path d="M32.0067 7.5111C32.5067 8.0111 25.9572 10.2752 21.5864 11.3147C14.5 13 13.5 9.5 13.5 9.5C12.5 6.5 15.5066 3.24031 22.6091 3.95029C27.8283 4.47201 32.0067 7.5111 32.0067 7.5111Z" fill="url(#paint1_linear)"/>
<defs>
<linearGradient id="paint0_linear" x1="43.6431" y1="10.2374" x2="0.280069" y2="37.4435" gradientUnits="userSpaceOnUse">
<stop stop-color="#219653"/>
<stop offset="0.696133" stop-color="#FFCD34"/>
</linearGradient>
<linearGradient id="paint1_linear" x1="43.6431" y1="10.2374" x2="0.280069" y2="37.4435" gradientUnits="userSpaceOnUse">
<stop stop-color="#219653"/>
<stop offset="0.696133" stop-color="#FFCD34"/>
</linearGradient>
</defs>
</svg>
