<svg fill="#000021" xmlns="http://www.w3.org/2000/svg" xmlns:xlink="http://www.w3.org/1999/xlink" version="1.1" x="0px" y="0px" viewBox="0 0 128 128" style="enable-background:new 0 0 128 128;" xml:space="preserve"><g><path d="M106.958,77.949H74.941c-1.104,0-2,0.896-2,2s0.896,2,2,2h32.017c1.104,0,2-0.896,2-2S108.062,77.949,106.958,77.949z"></path><path d="M87.876,97.04H83.49c-1.104,0-2,0.896-2,2s0.896,2,2,2h4.387c1.104,0,2-0.896,2-2S88.981,97.04,87.876,97.04z"></path><path d="M74.716,97.04h-8.773c-1.104,0-2,0.896-2,2s0.896,2,2,2h8.773c1.104,0,2-0.896,2-2S75.821,97.04,74.716,97.04z"></path><path d="M57.17,97.04h-4.387c-1.104,0-2,0.896-2,2s0.896,2,2,2h4.387c1.104,0,2-0.896,2-2S58.274,97.04,57.17,97.04z"></path><path d="M43.321,39.546v11.411c0,1.104,0.896,2,2,2s2-0.896,2-2V39.546c0-1.104-0.896-2-2-2S43.321,38.441,43.321,39.546z"></path><path d="M51.014,35.129v15.828c0,1.104,0.896,2,2,2s2-0.896,2-2V35.129c0-1.104-0.896-2-2-2S51.014,34.024,51.014,35.129z"></path><path d="M58.708,30.712v20.245c0,1.104,0.896,2,2,2s2-0.896,2-2V30.712c0-1.104-0.896-2-2-2S58.708,29.607,58.708,30.712z"></path><path d="M66.4,35.129v15.828c0,1.104,0.896,2,2,2s2-0.896,2-2V35.129c0-1.104-0.896-2-2-2S66.4,34.024,66.4,35.129z"></path><path d="M74.093,39.546v11.411c0,1.104,0.896,2,2,2s2-0.896,2-2V39.546c0-1.104-0.896-2-2-2S74.093,38.441,74.093,39.546z"></path><path d="M28.084,61.262H91.33v7.806H66.295H55.12H43.754c-1.104,0-2,0.896-2,2s0.896,2,2,2h8.871l-2.509,11.253   c-0.132,0.592,0.012,1.212,0.392,1.686s0.954,0.749,1.561,0.749h17.278c0.607,0,1.181-0.275,1.561-0.749s0.523-1.094,0.392-1.686   L68.79,73.068h24.54c1.104,0,2-0.896,2-2V51.95c0-1.104-0.896-2-2-2s-2,0.896-2,2v5.313H30.084V24.406h59.949c1.104,0,2-0.896,2-2   s-0.896-2-2-2H28.084c-1.104,0-2,0.896-2,2v36.857C26.084,60.367,26.98,61.262,28.084,61.262z M66.851,82.756H54.563l2.16-9.688   h7.969L66.851,82.756z"></path><path d="M38.634,94.388V67.544c0-1.104-0.896-2-2-2H16.727C11.088,65.544,6.5,70.135,6.5,75.78c0,4.959,3.543,9.103,8.227,10.037   v8.571c0,1.104,0.896,2,2,2h19.907C37.739,96.388,38.634,95.493,38.634,94.388z M34.634,92.388H18.727V75.273c0-1.104-0.896-2-2-2   s-2,0.896-2,2v6.407c-2.454-0.837-4.227-3.163-4.227-5.9c0-3.438,2.793-6.236,6.227-6.236h17.907V92.388z"></path><path d="M93.265,91.341c-0.374-0.536-0.986-0.855-1.64-0.855H48.018c-0.692,0-1.334,0.357-1.699,0.945l-8.138,13.108   c-0.383,0.617-0.401,1.393-0.049,2.027c0.353,0.634,1.022,1.028,1.748,1.028h60.9c0.746,0,1.429-0.415,1.773-1.075   c0.345-0.661,0.293-1.459-0.134-2.07L93.265,91.341z M43.476,103.594l5.654-9.108h41.453l6.361,9.108H43.476z"></path><path d="M119.5,77.949h-2.849V31.582c0-6.163-4.994-11.177-11.133-11.177h-1.028c-5.875,0-10.689,4.594-11.094,10.39   c-6.554,0.956-11.609,6.603-11.609,13.424c0,1.104,0.896,2,2,2h23.139c1.104,0,2-0.896,2-2c0-6.792-5.013-12.42-11.526-13.411   c0.385-3.595,3.417-6.403,7.09-6.403h1.028c3.933,0,7.133,3.219,7.133,7.177v53.174c0,1.104,0.896,2,2,2s2-0.896,2-2v-2.807h2.849   c1.104,0,2-0.896,2-2S120.604,77.949,119.5,77.949z M104.716,42.22h-18.72c0.921-4.327,4.768-7.583,9.36-7.583   S103.794,37.893,104.716,42.22z"></path></g></svg>