<svg fill="#000021" xmlns="http://www.w3.org/2000/svg" xmlns:xlink="http://www.w3.org/1999/xlink" version="1.1" x="0px" y="0px" viewBox="0 0 128 128" style="enable-background:new 0 0 128 128;" xml:space="preserve"><g><path d="M102.732,97.696l-3.3-1.874c0.157-0.978,0.236-1.974,0.236-2.975s-0.079-1.997-0.236-2.975l3.3-1.874   c0.466-0.265,0.806-0.705,0.945-1.222c0.138-0.518,0.063-1.068-0.208-1.53l-4.913-8.366c-0.554-0.943-1.761-1.267-2.712-0.727   l-4.561,2.589c-0.96,0.545-1.297,1.766-0.752,2.727c0.545,0.961,1.768,1.297,2.727,0.752l2.847-1.616l2.887,4.916l-2.795,1.587   c-0.78,0.442-1.169,1.35-0.954,2.22c0.282,1.139,0.425,2.323,0.425,3.519s-0.143,2.379-0.425,3.518   c-0.215,0.87,0.174,1.777,0.954,2.22l2.795,1.587l-2.887,4.916l-2.847-1.616c-0.76-0.433-1.714-0.319-2.354,0.278   c-1.761,1.647-3.916,2.873-6.232,3.543c-0.855,0.248-1.444,1.031-1.444,1.921v3.174h-5.826v-3.174c0-1.104-0.896-2-2-2   s-2,0.896-2,2v5.174c0,1.104,0.896,2,2,2h9.826c1.104,0,2-0.896,2-2v-3.734c1.903-0.719,3.692-1.738,5.281-3.008l3.335,1.893   c0.951,0.539,2.158,0.216,2.712-0.727l4.913-8.366c0.271-0.462,0.346-1.013,0.208-1.53C103.539,98.4,103.198,97.96,102.732,97.696z   "></path><path d="M66.117,114.016c-3.866,2.279-8.303,3.484-12.832,3.484c-13.117,0-23.902-9.991-24.94-22.651h24.132c1.104,0,2-0.896,2-2   s-0.896-2-2-2H28.339c0.841-10.013,7.927-18.746,17.811-21.64c0.035-0.01,0.065-0.028,0.099-0.04   c0.068-0.024,0.135-0.05,0.199-0.081c0.057-0.027,0.112-0.058,0.166-0.09c0.056-0.034,0.11-0.069,0.162-0.107   c0.053-0.039,0.103-0.081,0.152-0.125c0.046-0.042,0.09-0.086,0.133-0.132c0.044-0.048,0.085-0.098,0.124-0.15   c0.038-0.051,0.074-0.103,0.107-0.158c0.033-0.054,0.063-0.109,0.09-0.167c0.028-0.058,0.054-0.117,0.076-0.178   c0.023-0.062,0.042-0.124,0.059-0.189c0.016-0.06,0.029-0.119,0.039-0.181c0.012-0.071,0.018-0.143,0.022-0.216   c0.002-0.035,0.011-0.069,0.011-0.105v-5.408h2.72c1.104,0,2-0.896,2-2s-0.896-2-2-2h-2.72v-3.408h2.72c1.104,0,2-0.896,2-2   s-0.896-2-2-2h-2.72v-3.408h2.72c1.104,0,2-0.896,2-2s-0.896-2-2-2h-2.72v-3.408h11.394V67.29c0,0.888,0.585,1.67,1.438,1.919   c0.926,0.271,1.843,0.598,2.728,0.973c1.047,0.443,2.076,0.963,3.056,1.547c0.321,0.191,0.673,0.282,1.021,0.282   c0.682,0,1.347-0.349,1.721-0.978c0.565-0.949,0.253-2.177-0.696-2.742c-1.137-0.676-2.329-1.28-3.543-1.793   c-0.564-0.239-1.141-0.462-1.725-0.666V37.659c0-1.104-0.896-2-2-2H45.588c-1.104,0-2,0.896-2,2v28.198   c-11.45,4.021-19.333,14.899-19.333,26.993c0,15.798,13.023,28.651,29.03,28.651c5.243,0,10.382-1.396,14.863-4.039   c0.952-0.561,1.268-1.787,0.707-2.738C68.295,113.771,67.067,113.455,66.117,114.016z"></path><path d="M45.588,31.34h15.394c1.104,0,2-0.896,2-2s-0.896-2-2-2H45.588c-1.104,0-2,0.896-2,2S44.483,31.34,45.588,31.34z"></path><ellipse cx="47.948" cy="13.619" rx="2.397" ry="2.373"></ellipse><ellipse cx="53.285" cy="21.479" rx="2.397" ry="2.373"></ellipse><ellipse cx="40.586" cy="82.387" rx="2.397" ry="2.373"></ellipse><ellipse cx="54.933" cy="73.678" rx="2.397" ry="2.373"></ellipse><ellipse cx="58.079" cy="8.873" rx="2.397" ry="2.373"></ellipse><path d="M67.375,103.472l-2.851,1.617l-2.887-4.916l2.799-1.587c0.78-0.443,1.17-1.351,0.955-2.221   c-0.282-1.138-0.425-2.321-0.425-3.517c0-1.196,0.143-2.38,0.425-3.518c0.216-0.871-0.174-1.778-0.955-2.221l-2.799-1.587   l2.887-4.916l2.851,1.617c0.762,0.432,1.714,0.318,2.353-0.279c1.763-1.649,3.917-2.872,6.229-3.538   c0.857-0.247,1.447-1.03,1.447-1.922v-3.179h5.826v3.179c0,1.104,0.896,2,2,2s2-0.896,2-2v-5.179c0-1.104-0.896-2-2-2h-9.826   c-1.104,0-2,0.896-2,2v3.737c-1.902,0.716-3.691,1.735-5.281,3.006l-3.339-1.894c-0.951-0.54-2.158-0.216-2.711,0.727l-4.913,8.366   c-0.271,0.462-0.346,1.013-0.207,1.531c0.139,0.517,0.479,0.958,0.945,1.222l3.304,1.874c-0.157,0.978-0.236,1.974-0.236,2.975   s0.079,1.997,0.236,2.974l-3.304,1.874c-0.466,0.264-0.806,0.705-0.945,1.222c-0.139,0.518-0.064,1.069,0.207,1.531l4.913,8.366   c0.372,0.634,1.04,0.988,1.727,0.988c0.334,0,0.673-0.084,0.985-0.261l4.565-2.589c0.961-0.545,1.298-1.766,0.753-2.727   C69.557,103.265,68.337,102.926,67.375,103.472z"></path><path d="M90.517,92.847c0-5.562-4.577-10.087-10.202-10.087c-5.625,0-10.202,4.525-10.202,10.087s4.577,10.087,10.202,10.087   C85.94,102.934,90.517,98.409,90.517,92.847z M74.113,92.847c0-3.356,2.782-6.087,6.202-6.087c3.42,0,6.202,2.731,6.202,6.087   s-2.782,6.087-6.202,6.087C76.895,98.934,74.113,96.204,74.113,92.847z"></path></g></svg>