<svg fill="#000021" xmlns="http://www.w3.org/2000/svg" xmlns:xlink="http://www.w3.org/1999/xlink" version="1.1" x="0px" y="0px" viewBox="0 0 128 128" style="enable-background:new 0 0 128 128;" xml:space="preserve"><g><path d="M24.563,42.5c0.05-0.225,0.24-1.07,0.339-1.49c0.18-0.47,0.459-1.328,0.595-1.954c0.798-2.549,2.042-4.865,3.025-6.579   C37.422,17.411,55.74,12.82,69.001,14.936c11.961,1.893,20.884,7.892,25.765,17.268c1.235,2.659,2.033,4.81,2.516,6.798   l0.328,1.265c0.002,0.088,0.011,0.176,0.025,0.264l0.293,1.809c0.442,2.731,0.472,5.723,0.086,8.891   c-0.133,1.096,0.647,2.093,1.744,2.227c1.101,0.132,2.093-0.647,2.227-1.744c0.431-3.542,0.394-6.91-0.109-10.013l-0.268-1.65   v-0.04c0-0.169-0.021-0.338-0.064-0.501l-0.383-1.479c-0.54-2.221-1.419-4.607-2.808-7.59   c-5.53-10.626-15.463-17.353-28.726-19.452c-14.551-2.322-34.699,2.78-44.562,19.48c-1.103,1.921-2.486,4.503-3.4,7.441   c-0.028,0.091-0.05,0.184-0.065,0.277c-0.069,0.293-0.324,1.152-0.411,1.353c-0.062,0.128-0.11,0.262-0.144,0.4   c-0.101,0.411-0.4,1.746-0.4,1.746c-0.008,0.038-0.016,0.075-0.022,0.112c-2.529,15.356,1.011,28.57,10.821,40.37v33.357   c0,1.104,0.896,2,2,2s2-0.896,2-2V81.434c0-0.475-0.169-0.935-0.478-1.297C25.488,69.006,22.181,57.046,24.563,42.5z"></path><path d="M107.524,72.857c-1.426-3.108-5.901-13.245-5.946-13.347c-0.446-1.011-1.628-1.469-2.637-1.022   c-1.011,0.446-1.468,1.627-1.022,2.637c0.045,0.103,4.532,10.265,5.969,13.399c0.273,0.596,0.347,1.212,0.207,1.735   c-0.097,0.363-0.188,0.706-1.133,0.706h-8.588c-1.104,0-2,0.896-2,2v16.071c0,4.379-3.505,7.942-7.814,7.942H67.885   c-5.551,0-10.067-4.514-10.067-10.062v-1.231c0-1.104-0.896-2-2-2s-2,0.896-2,2v1.231c0,7.754,6.311,14.062,14.067,14.062h6.453   v8.566c0,1.104,0.896,2,2,2s2-0.896,2-2v-8.566h6.223c6.515,0,11.814-5.357,11.814-11.942V80.965h6.588   c2.554,0,4.375-1.339,4.998-3.674C108.34,75.871,108.184,74.297,107.524,72.857z"></path><path d="M55.818,78.59c-1.104,0-2,0.896-2,2v2.642c0,1.104,0.896,2,2,2s2-0.896,2-2V80.59C57.818,79.485,56.922,78.59,55.818,78.59   z"></path><path d="M53.818,63.553v8.584c0,1.104,0.896,2,2,2s2-0.896,2-2v-8.584c5.086-0.848,9.1-4.857,9.945-9.932H79.63   c0.013,0,0.024-0.003,0.037-0.004c0.143,0.006,0.283,0.021,0.427,0.021h5.599c3.665,0,5.701-2.76,5.818-5.485   c0.08-1.867-0.78-3.826-2.552-4.909c0.178-0.763,0.233-1.528,0.245-2.207c0.067-3.722-2.56-6.931-6.111-7.655   c-0.185-2.123-1.133-4.091-2.726-5.606c-2.718-2.587-6.717-3.227-10.07-1.924c-1.873-2.739-5.1-4.472-8.6-4.472   c-3.5,0-6.727,1.733-8.6,4.472c-3.354-1.303-7.352-0.663-10.07,1.923c-1.592,1.515-2.54,3.482-2.726,5.603   c-3.486,0.698-6.114,3.681-6.114,7.246c0,0.81,0.045,1.729,0.267,2.632c-1.759,1.086-2.612,3.038-2.532,4.898   c0.117,2.726,2.153,5.485,5.818,5.485h6.135C44.726,58.705,48.738,62.706,53.818,63.553z M56.422,42.216c-1.104,0-2,0.896-2,2   c0,2.99-2.602,5.422-5.799,5.422H37.74c-1.666,0-1.81-1.38-1.822-1.657c-0.018-0.429,0.091-1.43,1.441-1.567h1.004   c1.104,0,2-0.896,2-2c0-1.104-0.894-1.999-1.997-2c-0.155-0.542-0.179-1.24-0.179-1.791c0-1.56,1.147-2.864,2.697-3.263   c0.468,1.173,1.185,2.251,2.143,3.162c0.387,0.369,0.883,0.551,1.378,0.551c0.529,0,1.056-0.208,1.449-0.622   c0.762-0.8,0.73-2.066-0.07-2.827c-0.982-0.935-1.522-2.169-1.522-3.477c0-1.308,0.541-2.542,1.523-3.476   c2.094-1.992,5.5-1.992,7.594,0c0.801,0.762,2.066,0.73,2.828-0.07c0.659-0.692,0.721-1.732,0.209-2.493   c1.137-1.665,3.113-2.73,5.281-2.73c2.151,0,4.111,1.047,5.253,2.689l-0.827,0.786c-0.8,0.762-0.832,2.027-0.071,2.828   c0.762,0.8,2.028,0.833,2.828,0.071l1.136-1.081c2.094-1.992,5.5-1.992,7.594,0c0.981,0.934,1.522,2.168,1.522,3.476   c0,1.307-0.541,2.542-1.522,3.477c-0.8,0.761-0.832,2.027-0.07,2.828c0.393,0.413,0.92,0.621,1.449,0.621   c0.495,0,0.991-0.183,1.378-0.551c0.959-0.912,1.677-1.992,2.144-3.167c1.579,0.427,2.723,1.903,2.693,3.61   c-0.008,0.443-0.036,0.999-0.154,1.45c-1.096,0.01-1.981,0.902-1.981,2c0,1.104,0.896,2,2,2h1.004   c1.349,0.138,1.459,1.138,1.44,1.567c-0.012,0.276-0.155,1.657-1.821,1.657h-5.599c-3.198,0-5.799-2.432-5.799-5.422   c0-1.104-0.896-2-2-2s-2,0.896-2,2c0,2.011,0.664,3.873,1.785,5.405h-9.228c-1.104,0-2,0.896-2,2s0.896,2,2,2h0.831   c-0.891,3.506-4.074,6.111-7.865,6.111c-3.785,0-6.964-2.597-7.861-6.094h0.666c5.403,0,9.799-4.227,9.799-9.422   C58.422,43.112,57.527,42.216,56.422,42.216z"></path></g></svg>