<svg fill="#000021" xmlns="http://www.w3.org/2000/svg" xmlns:xlink="http://www.w3.org/1999/xlink" version="1.1" x="0px" y="0px" viewBox="0 0 128 128" style="enable-background:new 0 0 128 128;" xml:space="preserve"><g><path d="M96.027,94.564c-1.104,0-2,0.896-2,2v5.777L66,116.272V97.087c0-1.104-0.896-2-2-2c-1.104,0-2,0.896-2,2v19.173   l-27.896-13.984v-5.646c0-1.104-0.896-2-2-2c-1.104,0-2,0.896-2,2v6.881c0,0.04,0.009,0.077,0.012,0.117   c0.004,0.072,0.01,0.143,0.022,0.214c0.011,0.064,0.026,0.125,0.043,0.186c0.017,0.062,0.034,0.124,0.057,0.184   c0.023,0.061,0.05,0.12,0.079,0.178c0.028,0.058,0.058,0.114,0.092,0.169c0.033,0.053,0.069,0.104,0.107,0.154   c0.04,0.053,0.081,0.105,0.127,0.154c0.043,0.046,0.089,0.089,0.136,0.13c0.049,0.043,0.098,0.086,0.151,0.124   c0.056,0.041,0.116,0.077,0.177,0.112c0.035,0.02,0.065,0.046,0.102,0.065l31.896,15.989c0.017,0.008,0.035,0.011,0.052,0.019   c0.096,0.045,0.196,0.079,0.299,0.108c0.037,0.011,0.073,0.026,0.111,0.034c0.14,0.031,0.285,0.05,0.434,0.05   c0.149,0,0.293-0.019,0.433-0.05c0.037-0.008,0.071-0.023,0.108-0.033c0.104-0.029,0.205-0.063,0.302-0.108   c0.016-0.007,0.033-0.01,0.048-0.017l32.027-15.919c0.037-0.018,0.067-0.044,0.102-0.064c0.062-0.036,0.124-0.072,0.182-0.114   c0.053-0.038,0.1-0.08,0.148-0.122c0.048-0.042,0.094-0.085,0.138-0.132c0.046-0.049,0.086-0.1,0.127-0.153   c0.038-0.05,0.075-0.1,0.108-0.154c0.034-0.055,0.063-0.112,0.092-0.169c0.029-0.058,0.056-0.116,0.079-0.177   s0.041-0.123,0.058-0.186c0.016-0.061,0.032-0.121,0.043-0.183c0.012-0.072,0.018-0.144,0.022-0.218   c0.002-0.04,0.012-0.077,0.012-0.117v-7.017C98.027,95.46,97.132,94.564,96.027,94.564z"></path><path d="M64,13.481c1.104,0,2-0.896,2-2V8.5c0-1.104-0.896-2-2-2c-1.104,0-2,0.896-2,2v2.981C62,12.585,62.896,13.481,64,13.481z"></path><path d="M73.941,15.487c0.254,0.107,0.518,0.158,0.777,0.158c0.78,0,1.521-0.458,1.843-1.222l1.161-2.747   c0.43-1.017-0.046-2.19-1.064-2.621c-1.018-0.43-2.19,0.047-2.621,1.064l-1.161,2.747C72.447,13.883,72.923,15.057,73.941,15.487z"></path><path d="M83.472,21.545c0.512,0,1.024-0.195,1.414-0.586l2.108-2.108c0.781-0.781,0.781-2.047,0-2.828   c-0.78-0.781-2.048-0.781-2.828,0l-2.108,2.108c-0.781,0.781-0.781,2.047,0,2.828C82.448,21.35,82.961,21.545,83.472,21.545z"></path><path d="M87.531,29.074c0.323,0.764,1.063,1.222,1.843,1.222c0.259,0,0.523-0.051,0.777-0.158l2.747-1.161   c1.018-0.43,1.494-1.603,1.064-2.621c-0.43-1.017-1.603-1.494-2.621-1.064l-2.747,1.161C87.578,26.883,87.102,28.057,87.531,29.074   z"></path><path d="M89.538,39.012c0,1.104,0.896,2,2,2h2.981c1.104,0,2-0.896,2-2s-0.896-2-2-2h-2.981   C90.433,37.012,89.538,37.908,89.538,39.012z"></path><path d="M51.439,14.423c0.322,0.763,1.063,1.222,1.843,1.222c0.259,0,0.523-0.051,0.777-0.158c1.018-0.43,1.494-1.603,1.064-2.621   l-1.16-2.747c-0.43-1.017-1.604-1.495-2.621-1.064c-1.018,0.43-1.494,1.603-1.064,2.621L51.439,14.423z"></path><path d="M43.114,20.959c0.391,0.39,0.902,0.585,1.414,0.585s1.024-0.195,1.415-0.586c0.781-0.781,0.781-2.047,0-2.829l-2.108-2.108   c-0.781-0.78-2.047-0.781-2.829,0c-0.781,0.781-0.781,2.047,0,2.829L43.114,20.959z"></path><path d="M35.101,28.978l2.748,1.161c0.254,0.107,0.518,0.158,0.777,0.158c0.78,0,1.521-0.459,1.843-1.222   c0.43-1.018-0.046-2.191-1.064-2.621l-2.748-1.161c-1.019-0.43-2.191,0.047-2.621,1.064C33.607,27.375,34.083,28.548,35.101,28.978   z"></path><path d="M33.481,41.012h2.982c1.104,0,2-0.896,2-2s-0.896-2-2-2h-2.982c-1.104,0-2,0.896-2,2S32.376,41.012,33.481,41.012z"></path><path d="M115.301,75.97l-14.739-4.841L115.785,61c0.004-0.003,0.007-0.006,0.011-0.009c0.014-0.009,0.025-0.022,0.039-0.032   c0.137-0.098,0.255-0.212,0.36-0.335c0.027-0.032,0.053-0.063,0.079-0.097c0.11-0.147,0.201-0.304,0.266-0.472   c0.003-0.008,0.009-0.013,0.012-0.021c0.017-0.045,0.023-0.092,0.036-0.138c0.02-0.07,0.042-0.138,0.055-0.21   c0.012-0.065,0.015-0.13,0.02-0.195c0.005-0.064,0.012-0.127,0.011-0.191c-0.001-0.066-0.01-0.131-0.018-0.196   c-0.007-0.064-0.013-0.127-0.027-0.19c-0.014-0.064-0.035-0.126-0.055-0.189c-0.019-0.061-0.037-0.121-0.063-0.181   c-0.029-0.068-0.067-0.132-0.104-0.196c-0.023-0.04-0.039-0.083-0.065-0.122c-0.006-0.009-0.014-0.016-0.02-0.025   c-0.043-0.063-0.095-0.12-0.146-0.178c-0.037-0.042-0.07-0.088-0.11-0.126c-0.043-0.042-0.094-0.077-0.141-0.115   c-0.056-0.045-0.109-0.093-0.169-0.131c-0.039-0.025-0.083-0.043-0.124-0.066c-0.076-0.041-0.151-0.083-0.23-0.114   c-0.009-0.003-0.016-0.009-0.025-0.012l-25.304-9.436c-1.037-0.386-2.187,0.141-2.573,1.175c-0.386,1.035,0.14,2.187,1.175,2.573   l21.633,8.067l-14.426,9.598l-13.023-6.473c-0.99-0.491-2.189-0.088-2.681,0.901s-0.088,2.189,0.901,2.681l10.455,5.197   L64.004,85.427L36.583,71.681l10.332-5.134c0.989-0.491,1.393-1.692,0.901-2.681c-0.492-0.989-1.691-1.393-2.681-0.901l-12.881,6.4   l-14.361-9.628l21.431-7.965c1.035-0.385,1.563-1.536,1.178-2.571c-0.385-1.036-1.537-1.564-2.571-1.178l-25.093,9.326   c-0.704,0.261-1.202,0.895-1.29,1.64c-0.088,0.746,0.249,1.478,0.873,1.896l15.172,10.171L12.696,75.97   c-0.77,0.254-1.311,0.948-1.369,1.757c-0.058,0.809,0.379,1.573,1.105,1.934L44.459,95.58c0.279,0.139,0.584,0.209,0.89,0.209   c0.21,0,0.421-0.033,0.624-0.1l18.023-5.92l17.943,5.958c0.205,0.068,0.418,0.102,0.63,0.102c0.306,0,0.611-0.07,0.89-0.209   l32.107-15.959c0.727-0.361,1.163-1.125,1.104-1.935C116.614,76.917,116.072,76.223,115.301,75.97z M45.505,91.632L18.57,78.244   l13.376-4.413l26.82,13.445L45.505,91.632z M82.418,91.671l-13.183-4.377L96.182,73.9l13.24,4.349L82.418,91.671z"></path><path d="M51.075,55.369c0.951,0.75,1.497,1.867,1.497,3.063v0.965c0,0,0,0,0,0s0,0,0,0c0,1.104,0.896,2,2,2H64c1.104,0,2-0.896,2-2   v-12.18c3.492-0.894,6.084-4.057,6.084-7.822c0-4.457-3.626-8.083-8.084-8.083c-4.458,0-8.084,3.626-8.084,8.083   c0,3.766,2.593,6.929,6.084,7.822v10.18h-5.502c-0.266-2.027-1.302-3.872-2.944-5.168c-4.074-3.215-6.41-8.032-6.41-13.217   c0-4.782,2.046-9.357,5.613-12.553c3.617-3.24,8.292-4.729,13.163-4.192c7.858,0.866,14.255,7.473,14.88,15.368   c0.449,5.66-1.938,11.125-6.385,14.617c-1.899,1.492-2.988,3.741-2.988,6.172v6.728c0,0.559-0.458,1.013-1.02,1.013h-1.521   c-1.104,0-2,0.896-2,2c0,1.591-1.295,2.886-2.887,2.886c-1.592,0-2.887-1.295-2.887-2.886c0-1.104-0.896-2-2-2h-4.541   c-1.104,0-2,0.896-2,2s0.896,2,2,2h2.837c0.859,2.825,3.489,4.886,6.591,4.886c3.109,0,5.74-2.071,6.594-4.905   c2.68-0.1,4.834-2.293,4.834-4.994v-6.728c0-1.195,0.532-2.298,1.459-3.026c5.502-4.322,8.457-11.081,7.901-18.079   c-0.787-9.936-8.538-17.938-18.429-19.028c-5.932-0.655-11.86,1.238-16.27,5.188c-4.413,3.954-6.944,9.615-6.944,15.532   C43.144,45.429,46.035,51.391,51.075,55.369z M59.916,39.396c0-2.251,1.833-4.083,4.084-4.083c2.252,0,4.084,1.832,4.084,4.083   c0,2.251-1.832,4.083-4.084,4.083C61.748,43.479,59.916,41.647,59.916,39.396z"></path></g></svg>