<svg fill="#000021" xmlns="http://www.w3.org/2000/svg" xmlns:xlink="http://www.w3.org/1999/xlink" version="1.1" x="0px" y="0px" viewBox="0 0 128 128" style="enable-background:new 0 0 128 128;" xml:space="preserve"><g><path d="M66.818,17.252c-11.141-0.775-21.741,2.973-29.849,10.541c-7.94,7.411-12.495,17.871-12.495,28.697   c0,12.717,6.227,24.713,16.658,32.09c2.368,1.674,3.782,4.452,3.782,7.429v0.309c0,1.104,0.896,2,2,2s2-0.896,2-2v-0.309   c0-4.274-2.046-8.272-5.472-10.694C34.07,78.687,28.474,67.911,28.474,56.49c0-9.865,3.986-19.018,11.224-25.773   c7.289-6.802,16.817-10.167,26.844-9.475c17.02,1.176,30.789,14.228,32.738,31.034c0.756,6.517-0.268,13.056-2.962,18.908   c-3.142,6.827-8.818,12.597-15.982,16.247l-0.158,0.081c-0.984,0.501-1.376,1.706-0.875,2.69c0.501,0.985,1.706,1.375,2.69,0.875   l0.158-0.081c7.962-4.057,14.284-10.499,17.8-18.139c3-6.519,4.143-13.795,3.302-21.042   C101.082,33.097,85.759,18.561,66.818,17.252z"></path><path d="M44.379,15.396c0.323,0.762,1.063,1.219,1.842,1.219c0.261,0,0.525-0.051,0.781-0.16c1.017-0.432,1.491-1.605,1.059-2.623   l-0.249-0.585c-0.431-1.017-1.604-1.491-2.623-1.059c-1.017,0.432-1.491,1.605-1.059,2.623L44.379,15.396z"></path><path d="M64,13.043c1.104,0,2-0.896,2-2V8.5c0-1.104-0.896-2-2-2s-2,0.896-2,2v2.543C62,12.147,62.896,13.043,64,13.043z"></path><path d="M81.621,16.723c0.264,0.117,0.539,0.172,0.81,0.172c0.767,0,1.499-0.444,1.83-1.19l0.258-0.582   c0.447-1.01-0.008-2.191-1.018-2.639c-1.009-0.447-2.191,0.008-2.639,1.018l-0.258,0.582   C80.156,15.093,80.611,16.275,81.621,16.723z"></path><path d="M96.797,26.857c0.5,0,1-0.186,1.389-0.561l1.835-1.77c0.795-0.767,0.818-2.033,0.051-2.828s-2.033-0.818-2.828-0.051   l-1.835,1.77c-0.795,0.767-0.818,2.033-0.051,2.828C95.75,26.652,96.273,26.857,96.797,26.857z"></path><path d="M106.36,41.453c0.249,0,0.501-0.046,0.746-0.145l0.593-0.238c1.025-0.412,1.521-1.577,1.109-2.602   c-0.412-1.025-1.577-1.523-2.602-1.109l-0.593,0.238c-1.025,0.412-1.521,1.577-1.109,2.602   C104.818,40.979,105.568,41.453,106.36,41.453z"></path><path d="M112.228,55.235h-2.56c-1.104,0-2,0.896-2,2s0.896,2,2,2h2.56c1.104,0,2-0.896,2-2S113.333,55.235,112.228,55.235z"></path><path d="M107.196,73.252l-0.585-0.256c-1.011-0.442-2.191,0.018-2.635,1.029c-0.443,1.012,0.018,2.191,1.029,2.635l0.585,0.256   c0.261,0.114,0.534,0.168,0.802,0.168c0.77,0,1.504-0.447,1.833-1.198C108.668,74.875,108.207,73.696,107.196,73.252z"></path><path d="M97.226,87.725c-0.771-0.792-2.038-0.807-2.828-0.036c-0.791,0.771-0.807,2.037-0.036,2.828l1.779,1.826   c0.392,0.402,0.912,0.604,1.432,0.604c0.503,0,1.007-0.189,1.396-0.568c0.791-0.771,0.807-2.037,0.036-2.828L97.226,87.725z"></path><path d="M29.815,86.684l-1.835,1.77c-0.795,0.767-0.818,2.033-0.051,2.828c0.392,0.407,0.916,0.612,1.439,0.612   c0.5,0,1-0.186,1.388-0.561l1.835-1.77c0.795-0.767,0.818-2.033,0.051-2.828C31.876,85.94,30.61,85.917,29.815,86.684z"></path><path d="M20.894,71.673l-0.593,0.238c-1.025,0.412-1.521,1.577-1.109,2.602c0.313,0.78,1.063,1.254,1.856,1.254   c0.249,0,0.501-0.046,0.746-0.145l0.593-0.238c1.025-0.412,1.521-1.577,1.109-2.602C23.084,71.757,21.919,71.259,20.894,71.673z"></path><path d="M20.327,55.815c0.017-1.104-0.865-2.013-1.969-2.031l-2.555-0.04c-0.01,0-0.021,0-0.031,0c-1.09,0-1.982,0.875-2,1.969   c-0.017,1.104,0.865,2.014,1.969,2.031l2.555,0.04c0.01,0,0.021,0,0.031,0C19.418,57.785,20.31,56.91,20.327,55.815z"></path><path d="M22.997,36.321l-0.584-0.257c-1.01-0.445-2.191,0.015-2.636,1.026c-0.444,1.011,0.015,2.191,1.026,2.636l0.584,0.257   c0.262,0.115,0.535,0.169,0.804,0.169c0.769,0,1.502-0.446,1.832-1.196C24.468,37.946,24.008,36.766,22.997,36.321z"></path><path d="M30.773,25.255c0.392,0.402,0.912,0.604,1.433,0.604c0.503,0,1.007-0.188,1.396-0.567c0.792-0.771,0.808-2.037,0.037-2.828   l-1.779-1.826c-0.771-0.792-2.038-0.808-2.828-0.037c-0.792,0.771-0.808,2.037-0.037,2.828L30.773,25.255z"></path><path d="M57.155,46.571l-1.704,1.688c-0.367-0.43-0.906-0.709-1.516-0.709h-8.269c-1.104,0-2,0.896-2,2v24.258c0,1.104,0.896,2,2,2   h8.269c1.104,0,2-0.896,2-2V53.41l4.034-3.998c1.461-1.447,2.604-3.144,3.396-5.046c0.788-1.888,1.186-3.883,1.182-5.931   l-0.003-1.738l0.223,0.026c0.975,0.115,1.779,0.767,1.966,1.638l0.01,0.229c0.12,2.734-0.079,5.484-0.592,8.175l-0.356,1.87   c-0.111,0.586,0.044,1.191,0.424,1.65c0.38,0.459,0.945,0.725,1.541,0.725c0,0,0.001,0,0.001,0l11.077-0.008   c0.235,0,0.468,0.059,0.708,0.188c0.485,0.26,0.786,0.756,0.786,1.294c0,0.559-0.228,1.105-0.624,1.498l-0.201,0.199   c-0.77,0.762-0.793,1.999-0.052,2.789l0.519,0.554c0.231,0.246,0.358,0.568,0.358,0.94c0,0.452-0.203,0.872-0.558,1.152   l-0.321,0.255c-0.688,0.546-0.939,1.477-0.62,2.294l0.359,0.919c0.095,0.243,0.138,0.498,0.127,0.759   c-0.023,0.567-0.297,1.089-0.751,1.431l-0.82,0.618c-0.501,0.378-0.796,0.969-0.796,1.597v0.676c0,0.61-0.51,1.107-1.136,1.107   H60.337c-1.104,0-2,0.896-2,2s0.896,2,2,2h15.479c2.721,0,4.954-2.115,5.125-4.778l0.035-0.026   c1.415-1.066,2.268-2.692,2.341-4.461c0.028-0.689-0.063-1.366-0.27-2.018c0.827-0.978,1.286-2.223,1.286-3.56   c0-1.027-0.292-2.017-0.836-2.867c0.541-0.929,0.836-1.996,0.836-3.08c0-2.015-1.109-3.862-2.927-4.836   c-0.786-0.422-1.674-0.646-2.568-0.646l-8.663,0.006c0.501-2.833,0.691-5.721,0.565-8.592l-0.01-0.229   c-0.01-0.227-0.042-0.47-0.096-0.721c-0.541-2.504-2.71-4.399-5.4-4.715l-0.516-0.061c-1.06-0.125-2.125,0.21-2.923,0.92   c-0.795,0.708-1.251,1.723-1.25,2.812l0.003,2.02c0.002,1.513-0.292,2.988-0.875,4.388C59.085,44.239,58.238,45.498,57.155,46.571z    M51.935,71.808h-4.269V51.55h4.269V71.808z"></path><path d="M81.086,94.318H56.661c-1.104,0-2,0.896-2,2s0.896,2,2,2h22.426v7.296c0,1.991-1.632,3.611-3.639,3.611H52.553   c-1.953,0-3.538-1.537-3.623-3.454h22.41c1.104,0,2-0.896,2-2s-0.896-2-2-2H46.919c-0.002,0-0.003,0-0.005,0c-1.104,0-2,0.896-2,2   v1.843c0,4.197,3.427,7.611,7.639,7.611h1.328c0.938,4.711,5.117,8.275,10.119,8.275s9.181-3.564,10.118-8.275h1.328   c4.212,0,7.639-3.414,7.639-7.611v-8.882c0-0.071-0.014-0.138-0.021-0.207c0.007-0.069,0.021-0.136,0.021-0.207   C83.086,95.213,82.191,94.318,81.086,94.318z M64,117.5c-2.779,0-5.14-1.794-5.984-4.275h11.967   C69.14,115.706,66.78,117.5,64,117.5z"></path></g></svg>