<svg fill="#000021" xmlns="http://www.w3.org/2000/svg" xmlns:xlink="http://www.w3.org/1999/xlink" version="1.1" x="0px" y="0px" viewBox="0 0 128 128" style="enable-background:new 0 0 128 128;" xml:space="preserve"><g><path d="M47.661,49.637c0.767,0.441,1.732,0.327,2.374-0.282c2.328-2.208,5.171-3.846,8.223-4.737   c0.853-0.249,1.439-1.031,1.439-1.92v-4.741h8.611v4.741c0,1.104,0.896,2,2,2s2-0.896,2-2v-6.741c0-1.104-0.896-2-2-2H57.697   c-1.104,0-2,0.896-2,2v5.292c-2.643,0.959-5.123,2.388-7.292,4.202l-4.61-2.651c-0.955-0.55-2.175-0.223-2.728,0.731l-6.306,10.891   c-0.266,0.459-0.338,1.007-0.201,1.52s0.474,0.951,0.935,1.215l4.602,2.647c-0.243,1.375-0.366,2.78-0.366,4.195   s0.123,2.82,0.366,4.195l-4.602,2.647c-0.461,0.265-0.797,0.702-0.935,1.215s-0.065,1.061,0.201,1.52l6.306,10.891   c0.371,0.641,1.042,0.999,1.733,0.999c0.338,0,0.681-0.086,0.995-0.267l5.859-3.371c0.958-0.551,1.287-1.773,0.736-2.73   c-0.55-0.958-1.774-1.288-2.73-0.736l-4.131,2.376l-4.301-7.429l4.121-2.371c0.771-0.443,1.157-1.344,0.946-2.208   c-0.374-1.53-0.564-3.122-0.564-4.73s0.19-3.2,0.564-4.73c0.211-0.865-0.174-1.765-0.946-2.208l-4.121-2.371l4.301-7.429   L47.661,49.637z"></path><path d="M93.438,55.941c0.138-0.513,0.065-1.06-0.201-1.52l-6.306-10.891c-0.552-0.954-1.772-1.28-2.729-0.731L78.35,46.17   c-0.957,0.551-1.286,1.774-0.735,2.731s1.774,1.286,2.731,0.735l4.125-2.375l4.301,7.429l-4.117,2.37   c-0.771,0.444-1.156,1.344-0.945,2.208c0.374,1.53,0.564,3.122,0.564,4.73s-0.19,3.2-0.564,4.73   c-0.211,0.864,0.174,1.764,0.945,2.208l4.117,2.37l-4.301,7.429l-4.125-2.375c-0.767-0.441-1.733-0.327-2.374,0.282   c-2.327,2.206-5.172,3.847-8.227,4.744c-0.852,0.25-1.437,1.031-1.437,1.919v4.736h-8.611v-4.736c0-1.104-0.896-2-2-2s-2,0.896-2,2   v6.736c0,1.104,0.896,2,2,2h12.611c1.104,0,2-0.896,2-2v-5.289c2.644-0.962,5.124-2.393,7.291-4.206l4.604,2.651   c0.957,0.551,2.177,0.224,2.729-0.731l6.306-10.891c0.266-0.459,0.338-1.006,0.201-1.52c-0.137-0.513-0.473-0.951-0.934-1.216   l-4.597-2.646c0.243-1.375,0.366-2.781,0.366-4.196s-0.123-2.821-0.366-4.196l4.597-2.646   C92.965,56.892,93.301,56.455,93.438,55.941z"></path><path d="M92.8,26.355c1.104,0,2-0.896,2-2V16c0-1.104-0.896-2-2-2s-2,0.896-2,2v6.355h-5.6V16c0-1.104-0.896-2-2-2s-2,0.896-2,2   v6.355h-5.6V16c0-1.104-0.896-2-2-2s-2,0.896-2,2v6.355H66V16c0-1.104-0.896-2-2-2s-2,0.896-2,2v6.355h-5.6V16c0-1.104-0.896-2-2-2   s-2,0.896-2,2v6.355h-5.601V16c0-1.104-0.896-2-2-2s-2,0.896-2,2v6.355h-5.6V16c0-1.104-0.896-2-2-2s-2,0.896-2,2v6.355h-8.844   c-1.104,0-2,0.896-2,2V33.2H16c-1.104,0-2,0.896-2,2s0.896,2,2,2h6.355v5.6H16c-1.104,0-2,0.896-2,2s0.896,2,2,2h6.355v5.6H16   c-1.104,0-2,0.896-2,2s0.896,2,2,2h6.355V62H16c-1.104,0-2,0.896-2,2s0.896,2,2,2h6.355v5.6H16c-1.104,0-2,0.896-2,2s0.896,2,2,2   h6.355v5.6H16c-1.104,0-2,0.896-2,2s0.896,2,2,2h6.355v5.6H16c-1.104,0-2,0.896-2,2s0.896,2,2,2h6.355v8.844c0,1.104,0.896,2,2,2   s2-0.896,2-2V26.355H92.8z"></path><path d="M112,46.8c1.104,0,2-0.896,2-2s-0.896-2-2-2h-6.356v-5.6H112c1.104,0,2-0.896,2-2s-0.896-2-2-2h-6.356v-8.844   c0-1.104-0.896-2-2-2s-2,0.896-2,2v77.289H35.199c-1.104,0-2,0.896-2,2V112c0,1.104,0.896,2,2,2s2-0.896,2-2v-6.355h5.6V112   c0,1.104,0.896,2,2,2s2-0.896,2-2v-6.355H52.4V112c0,1.104,0.896,2,2,2s2-0.896,2-2v-6.355H62V112c0,1.104,0.896,2,2,2s2-0.896,2-2   v-6.355h5.6V112c0,1.104,0.896,2,2,2s2-0.896,2-2v-6.355h5.6V112c0,1.104,0.896,2,2,2s2-0.896,2-2v-6.355h5.6V112   c0,1.104,0.896,2,2,2s2-0.896,2-2v-6.355h8.844c1.104,0,2-0.896,2-2V94.8H112c1.104,0,2-0.896,2-2s-0.896-2-2-2h-6.356v-5.6H112   c1.104,0,2-0.896,2-2s-0.896-2-2-2h-6.356v-5.6H112c1.104,0,2-0.896,2-2s-0.896-2-2-2h-6.356V66H112c1.104,0,2-0.896,2-2   s-0.896-2-2-2h-6.356v-5.6H112c1.104,0,2-0.896,2-2s-0.896-2-2-2h-6.356v-5.6H112z"></path><path d="M64,76.528c6.908,0,12.527-5.62,12.527-12.528S70.908,51.473,64,51.473S51.472,57.092,51.472,64S57.092,76.528,64,76.528z    M64,55.473c4.702,0,8.527,3.825,8.527,8.527S68.702,72.528,64,72.528S55.472,68.702,55.472,64S59.298,55.473,64,55.473z"></path></g></svg>