<svg fill="#000021" xmlns="http://www.w3.org/2000/svg" xmlns:xlink="http://www.w3.org/1999/xlink" version="1.1" x="0px" y="0px" viewBox="0 0 128 128" style="enable-background:new 0 0 128 128;" xml:space="preserve"><g><path d="M112,30.735H26c-1.104,0-2,0.896-2,2s0.896,2,2,2h84v61.469c0,1.647-1.346,2.988-3,2.988h-8.719c-1.104,0-2,0.896-2,2   s0.896,2,2,2H107c3.86,0,7-3.135,7-6.988V32.735C114,31.63,113.104,30.735,112,30.735z"></path><path d="M29.72,99.192H21c-1.654,0-3-1.34-3-2.988V21.925c0-1.647,1.346-2.988,3-2.988h91c1.104,0,2-0.896,2-2s-0.896-2-2-2H21   c-3.86,0-7,3.135-7,6.988v74.279c0,3.853,3.14,6.988,7,6.988h8.72c1.104,0,2-0.896,2-2S30.824,99.192,29.72,99.192z"></path><ellipse cx="24.075" cy="24.836" rx="1.524" ry="1.517"></ellipse><ellipse cx="29.834" cy="24.836" rx="1.524" ry="1.517"></ellipse><ellipse cx="35.592" cy="24.836" rx="1.524" ry="1.517"></ellipse><path d="M57.641,56.726c-1.779-0.08-3.648,0.726-4.703,2.389c-0.706-0.156-1.409-0.206-2.036-0.218   c-3.547-0.085-6.599,2.403-7.33,5.757c-2.005,0.192-3.862,1.095-5.297,2.595c-2.457,2.569-3.081,6.336-1.878,9.517   c-2.579,1.792-4.207,4.84-4.207,8.144c0,3.304,1.627,6.352,4.206,8.144c-1.203,3.181-0.578,6.948,1.879,9.517   c1.434,1.499,3.29,2.402,5.294,2.595c0.704,3.29,3.546,5.76,6.941,5.76c0.757,0,1.614-0.044,2.46-0.243   c1.011,1.57,2.738,2.381,4.437,2.381c0.078,0,0.156-0.002,0.234-0.005c2.63-0.113,5.292-2.071,5.292-5.594v-9.986   c0-5.151-4.048-9.342-9.024-9.342c-1.104,0-2,0.896-2,2s0.896,2,2,2c2.77,0,5.024,2.396,5.024,5.342v9.986   c0,1.46-1.22,1.587-1.464,1.598c-0.464,0.023-1.254-0.121-1.372-1.246v-0.939c0-1.104-0.896-2-2-2   c-1.072,0-1.947,0.844-1.998,1.903c-0.573,0.145-1.292,0.145-1.59,0.145c-1.391,0-2.558-0.993-2.955-2.348   c1.087-0.447,2.085-1.12,2.933-2.007c0.764-0.798,0.735-2.064-0.063-2.828c-0.799-0.765-2.065-0.736-2.828,0.063   c-0.864,0.903-2.006,1.401-3.216,1.401s-2.352-0.498-3.216-1.401c-1.841-1.925-1.841-5.056,0-6.98   c0.764-0.798,0.735-2.064-0.063-2.828c-0.672-0.643-1.673-0.717-2.43-0.25c-1.516-1.055-2.482-2.859-2.482-4.838   c0-1.953,0.942-3.736,2.423-4.797l0.684,0.715c0.393,0.411,0.918,0.617,1.445,0.617c0.497,0,0.995-0.184,1.382-0.555   c0.798-0.764,0.826-2.03,0.062-2.828l-1.022-1.068c-1.841-1.925-1.841-5.056,0-6.981c0.864-0.903,2.006-1.4,3.216-1.4   s2.352,0.498,3.216,1.4c0.764,0.798,2.029,0.827,2.828,0.063c0.798-0.764,0.827-2.03,0.063-2.828   c-0.85-0.888-1.85-1.562-2.939-2.009c0.433-1.374,1.775-2.341,3.282-2.344c0.24,0.004,0.797,0.015,1.27,0.123   c0.059,1.052,0.93,1.887,1.997,1.887c1.104,0,2-0.896,2-2v-0.938c0.118-1.125,0.908-1.258,1.372-1.246   c0.245,0.011,1.464,0.137,1.464,1.598v8.707c0,2.946-2.254,5.342-5.024,5.342c-1.104,0-2,0.896-2,2s0.896,2,2,2   c1.858,0,3.587-0.586,5.024-1.586v7.161c0,1.104,0.896,2,2,2s2-0.896,2-2V71.027V62.32C62.933,58.797,60.271,56.839,57.641,56.726z   "></path><path d="M91.605,76.766c1.202-3.181,0.578-6.948-1.878-9.517c-1.434-1.5-3.292-2.402-5.297-2.595   c-0.727-3.349-3.758-5.814-7.331-5.757c-0.633,0.011-1.344,0.062-2.056,0.222c-1.056-1.655-2.906-2.471-4.683-2.393   c-2.63,0.113-5.292,2.071-5.292,5.594v8.707c0,5.151,4.048,9.342,9.023,9.342c1.104,0,2-0.896,2-2s-0.896-2-2-2   c-2.77,0-5.023-2.396-5.023-5.342V62.32c0-1.461,1.22-1.587,1.464-1.598c0.475-0.013,1.255,0.121,1.373,1.246v0.939   c0,1.104,0.896,2,2,2c1.067,0,1.938-0.835,1.997-1.887c0.473-0.108,1.03-0.119,1.27-0.123c1.513,0.001,2.851,0.969,3.282,2.344   c-1.089,0.447-2.09,1.12-2.94,2.009c-0.764,0.798-0.735,2.064,0.063,2.828c0.798,0.764,2.064,0.735,2.828-0.063   c0.864-0.903,2.006-1.4,3.216-1.4s2.352,0.498,3.216,1.4c1.841,1.925,1.841,5.056,0,6.98l-1.022,1.068   c-0.764,0.798-0.736,2.064,0.062,2.828c0.388,0.371,0.885,0.555,1.382,0.555c0.527,0,1.053-0.207,1.445-0.617l0.685-0.715   c1.482,1.061,2.423,2.844,2.423,4.797c0,1.979-0.967,3.783-2.482,4.838c-0.756-0.468-1.758-0.394-2.43,0.25   c-0.798,0.764-0.827,2.03-0.063,2.828c1.841,1.925,1.841,5.056,0,6.98c-0.864,0.903-2.006,1.401-3.216,1.401   s-2.352-0.498-3.216-1.401c-0.764-0.798-2.03-0.827-2.828-0.063c-0.798,0.764-0.827,2.029-0.063,2.828   c0.848,0.887,1.846,1.56,2.933,2.007c-0.397,1.356-1.564,2.348-2.955,2.348c-0.298,0-1.017,0-1.59-0.145   c-0.05-1.06-0.925-1.903-1.998-1.903c-1.104,0-2,0.896-2,2v0.939c-0.118,1.125-0.906,1.27-1.373,1.246   c-0.244-0.011-1.464-0.137-1.464-1.598v-9.986c0-2.946,2.253-5.342,5.023-5.342c1.104,0,2-0.896,2-2s-0.896-2-2-2   c-1.858,0-3.587,0.585-5.023,1.586v-7.16c0-1.104-0.896-2-2-2s-2,0.896-2,2v14.917v9.986c0,3.523,2.662,5.48,5.292,5.594   c0.078,0.003,0.156,0.005,0.234,0.005c1.698,0,3.426-0.811,4.437-2.381c0.847,0.2,1.703,0.243,2.461,0.243   c3.394,0,6.237-2.47,6.941-5.76c2.004-0.193,3.86-1.096,5.294-2.595c2.457-2.568,3.081-6.336,1.879-9.517   c2.579-1.792,4.206-4.84,4.206-8.144C95.811,81.605,94.184,78.558,91.605,76.766z"></path><path d="M41.717,52.72c1.104,0,2-0.896,2-2s-0.896-2-2-2H36.69c-1.5,0-2.721-1.226-2.721-2.745c0-1.507,1.221-2.732,2.721-2.732   h46.26v5.477H51.693c-1.104,0-2,0.896-2,2s0.896,2,2,2h33.255c0.001,0,0.002,0,0.003,0c0.132,0,0.266-0.014,0.398-0.041   c0.134-0.027,0.263-0.068,0.386-0.121c0,0,0.001,0,0.001,0l11.082-4.738c0.736-0.314,1.214-1.038,1.214-1.839   s-0.478-1.524-1.214-1.839l-11.082-4.739c0,0-0.001,0-0.001,0c-0.121-0.052-0.248-0.092-0.38-0.12   c-0.137-0.029-0.273-0.042-0.41-0.041H36.69c-3.706,0-6.721,3.02-6.721,6.745c0,3.712,3.015,6.732,6.721,6.732H41.717z    M86.95,47.69v-3.416l3.995,1.708L86.95,47.69z"></path></g></svg>