<svg fill="#000021" xmlns="http://www.w3.org/2000/svg" xmlns:xlink="http://www.w3.org/1999/xlink" version="1.1" x="0px" y="0px" viewBox="0 0 128 128" style="enable-background:new 0 0 128 128;" xml:space="preserve"><g><path d="M59.011,14H18.368c-5.128,0-9.301,4.088-9.301,9.113c0,0.066,0.013,0.128,0.019,0.193   c-0.006,0.064-0.019,0.127-0.019,0.193v59.096c0,1.104,0.896,2,2,2s2-0.896,2-2V23.499c0-0.066-0.013-0.128-0.019-0.193   c0.006-0.064,0.019-0.127,0.019-0.193c0-2.819,2.378-5.113,5.301-5.113h40.643c2.923,0,5.301,2.293,5.301,5.113v3.996H21.068   c-1.104,0-2,0.896-2,2s0.896,2,2,2h43.244v61.101v12.678c0,2.819-2.378,5.113-5.301,5.113H18.368c-2.923,0-5.301-2.293-5.301-5.113   V94.209h43.244c1.104,0,2-0.896,2-2s-0.896-2-2-2H11.068c-1.104,0-2,0.896-2,2v12.678c0,5.025,4.172,9.113,9.301,9.113h40.643   c5.128,0,9.301-4.088,9.301-9.113V92.209V29.108v-5.996C68.312,18.088,64.139,14,59.011,14z"></path><path d="M35.423,100.104c-1.104,0-2,0.896-2,2s0.896,2,2,2h5.881c1.104,0,2-0.896,2-2s-0.896-2-2-2H35.423z"></path><path d="M76.312,92.009c2.461,0,4.501,1.839,4.745,4.277c0.063,0.629,0.42,1.192,0.963,1.517c0.314,0.188,0.67,0.284,1.027,0.284   c0.259,0,0.519-0.05,0.765-0.152L95,93.304c0.584-0.242,1.019-0.746,1.174-1.358s0.011-1.263-0.389-1.753   c-1.55-1.902-1.409-4.65,0.326-6.389c1.737-1.738,4.483-1.878,6.389-0.33c0.491,0.399,1.14,0.543,1.752,0.387   c0.612-0.155,1.115-0.589,1.357-1.173l4.637-11.183c0.242-0.585,0.194-1.25-0.131-1.793c-0.325-0.543-0.888-0.9-1.518-0.963   c-2.441-0.243-4.282-2.286-4.282-4.751c0-2.461,1.841-4.501,4.283-4.745c0.63-0.063,1.193-0.42,1.518-0.963   c0.325-0.543,0.374-1.208,0.131-1.793l-4.637-11.183c-0.242-0.583-0.745-1.018-1.357-1.173c-0.614-0.156-1.262-0.011-1.752,0.387   c-1.905,1.549-4.653,1.408-6.388-0.328c-1.733-1.739-1.875-4.488-0.33-6.396c0.397-0.491,0.54-1.14,0.385-1.751   s-0.59-1.114-1.173-1.355l-11.182-4.631c-0.584-0.242-1.249-0.193-1.792,0.131c-0.543,0.325-0.9,0.888-0.963,1.517   c-0.244,2.438-2.284,4.277-4.745,4.277c-1.104,0-2,0.896-2,2s0.896,2,2,2c3.627,0,6.756-2.176,8.087-5.354l6.954,2.88   c-1.298,3.192-0.625,6.946,1.929,9.507c2.561,2.562,6.316,3.234,9.508,1.931l2.883,6.953c-3.18,1.331-5.358,4.46-5.358,8.088   c0,3.631,2.178,6.763,5.358,8.094l-2.883,6.953c-3.193-1.303-6.948-0.628-9.51,1.933c-2.557,2.563-3.229,6.317-1.925,9.507   l-6.956,2.879c-1.331-3.177-4.46-5.354-8.087-5.354c-1.104,0-2,0.896-2,2S75.207,92.009,76.312,92.009z"></path><path d="M76.312,77.291c-1.104,0-2,0.896-2,2s0.896,2,2,2c9.532,0,17.287-7.758,17.287-17.293c0-9.533-7.755-17.289-17.287-17.289   c-1.104,0-2,0.896-2,2s0.896,2,2,2c7.327,0,13.287,5.961,13.287,13.289C89.599,71.328,83.638,77.291,76.312,77.291z"></path><path d="M76.312,21.379c-1.104,0-2,0.896-2,2s0.896,2,2,2c21.295,0,38.621,17.325,38.621,38.621s-17.325,38.621-38.621,38.621   c-1.104,0-2,0.896-2,2s0.896,2,2,2c23.501,0,42.621-19.12,42.621-42.621S99.813,21.379,76.312,21.379z"></path><path d="M16.728,77.526c0,2.525,2.055,4.58,4.58,4.58h3.105c2.525,0,4.58-2.055,4.58-4.58v-2.892c0-2.525-2.055-4.58-4.58-4.58   h-3.105c-2.525,0-4.58,2.055-4.58,4.58V77.526z M20.728,74.634c0-0.314,0.266-0.58,0.58-0.58h3.105c0.314,0,0.58,0.266,0.58,0.58   v2.892c0,0.314-0.266,0.58-0.58,0.58h-3.105c-0.314,0-0.58-0.266-0.58-0.58V74.634z"></path><path d="M32.557,77.526c0,2.525,2.055,4.58,4.58,4.58h3.104c2.525,0,4.58-2.055,4.58-4.58v-2.892c0-2.525-2.055-4.58-4.58-4.58   h-3.104c-2.525,0-4.58,2.055-4.58,4.58V77.526z M36.557,74.634c0-0.314,0.266-0.58,0.58-0.58h3.104c0.314,0,0.58,0.266,0.58,0.58   v2.892c0,0.314-0.266,0.58-0.58,0.58h-3.104c-0.314,0-0.58-0.266-0.58-0.58V74.634z"></path><path d="M48.386,77.526c0,2.525,2.055,4.58,4.58,4.58h3.105c2.525,0,4.58-2.055,4.58-4.58v-2.892c0-2.525-2.055-4.58-4.58-4.58   h-3.105c-2.525,0-4.58,2.055-4.58,4.58V77.526z M52.386,74.634c0-0.314,0.266-0.58,0.58-0.58h3.105c0.314,0,0.58,0.266,0.58,0.58   v2.892c0,0.314-0.266,0.58-0.58,0.58h-3.105c-0.314,0-0.58-0.266-0.58-0.58V74.634z"></path><path d="M16.728,62.105c0,2.525,2.055,4.58,4.58,4.58h3.105c2.525,0,4.58-2.054,4.58-4.58v-2.892c0-2.525-2.055-4.58-4.58-4.58   h-3.105c-2.525,0-4.58,2.055-4.58,4.58V62.105z M20.728,59.213c0-0.314,0.266-0.58,0.58-0.58h3.105c0.314,0,0.58,0.266,0.58,0.58   v2.892c0,0.314-0.266,0.58-0.58,0.58h-3.105c-0.314,0-0.58-0.266-0.58-0.58V59.213z"></path><path d="M32.557,62.105c0,2.525,2.055,4.58,4.58,4.58h3.104c2.525,0,4.58-2.054,4.58-4.58v-2.892c0-2.525-2.055-4.58-4.58-4.58   h-3.104c-2.525,0-4.58,2.055-4.58,4.58V62.105z M36.557,59.213c0-0.314,0.266-0.58,0.58-0.58h3.104c0.314,0,0.58,0.266,0.58,0.58   v2.892c0,0.314-0.266,0.58-0.58,0.58h-3.104c-0.314,0-0.58-0.266-0.58-0.58V59.213z"></path><path d="M48.386,62.105c0,2.525,2.055,4.58,4.58,4.58h3.105c2.525,0,4.58-2.054,4.58-4.58v-2.892c0-2.525-2.055-4.58-4.58-4.58   h-3.105c-2.525,0-4.58,2.055-4.58,4.58V62.105z M52.386,59.213c0-0.314,0.266-0.58,0.58-0.58h3.105c0.314,0,0.58,0.266,0.58,0.58   v2.892c0,0.314-0.266,0.58-0.58,0.58h-3.105c-0.314,0-0.58-0.266-0.58-0.58V59.213z"></path><path d="M21.308,51.263h3.105c2.525,0,4.58-2.055,4.58-4.58v-2.892c0-2.525-2.055-4.58-4.58-4.58h-3.105   c-2.525,0-4.58,2.055-4.58,4.58v2.892C16.728,49.208,18.782,51.263,21.308,51.263z M20.728,43.791c0-0.314,0.266-0.58,0.58-0.58   h3.105c0.314,0,0.58,0.266,0.58,0.58v2.892c0,0.314-0.266,0.58-0.58,0.58h-3.105c-0.314,0-0.58-0.266-0.58-0.58V43.791z"></path><path d="M37.137,51.263h3.104c2.525,0,4.58-2.055,4.58-4.58v-2.892c0-2.525-2.055-4.58-4.58-4.58h-3.104   c-2.525,0-4.58,2.055-4.58,4.58v2.892C32.557,49.208,34.612,51.263,37.137,51.263z M36.557,43.791c0-0.314,0.266-0.58,0.58-0.58   h3.104c0.314,0,0.58,0.266,0.58,0.58v2.892c0,0.314-0.266,0.58-0.58,0.58h-3.104c-0.314,0-0.58-0.266-0.58-0.58V43.791z"></path><path d="M52.967,51.263h3.105c2.525,0,4.58-2.055,4.58-4.58v-2.892c0-2.525-2.055-4.58-4.58-4.58h-3.105   c-2.525,0-4.58,2.055-4.58,4.58v2.892C48.386,49.208,50.441,51.263,52.967,51.263z M52.386,43.791c0-0.314,0.266-0.58,0.58-0.58   h3.105c0.314,0,0.58,0.266,0.58,0.58v2.892c0,0.314-0.266,0.58-0.58,0.58h-3.105c-0.314,0-0.58-0.266-0.58-0.58V43.791z"></path></g></svg>