<svg fill="#000021" xmlns="http://www.w3.org/2000/svg" xmlns:xlink="http://www.w3.org/1999/xlink" version="1.1" x="0px" y="0px" viewBox="0 0 128 128" style="enable-background:new 0 0 128 128;" xml:space="preserve"><g><path d="M26.506,79.527h-6.869c-2.44,0-4.735-0.951-6.46-2.677c-1.726-1.728-2.676-4.023-2.676-6.466s0.951-4.738,2.676-6.465   c1.57-1.57,3.612-2.49,5.804-2.646c0.439,2.377,1.287,4.665,2.533,6.749c0.375,0.627,1.038,0.975,1.719,0.975   c0.349,0,0.703-0.092,1.024-0.284c0.948-0.566,1.257-1.794,0.691-2.743c-1.515-2.535-2.316-5.446-2.316-8.417   c0-4.388,1.708-8.513,4.808-11.615c1.646-1.647,3.577-2.902,5.739-3.73c1.87-0.717,3.844-1.081,5.868-1.081   c3.127,0,6.168,0.883,8.793,2.553c0.932,0.594,2.168,0.318,2.761-0.614c0.593-0.932,0.318-2.168-0.614-2.761   c-2.195-1.396-4.624-2.339-7.159-2.815c1.073-1.881,2.38-3.618,3.929-5.169c4.606-4.608,10.73-7.146,17.244-7.146   c6.513,0,12.637,2.538,17.244,7.147c0.781,0.781,2.047,0.781,2.829,0c0.781-0.781,0.781-2.047,0-2.829   C78.711,24.129,71.582,21.175,64,21.175c-7.583,0-14.711,2.955-20.073,8.319c-2.244,2.245-4.047,4.827-5.425,7.657   c-2.324,0.061-4.596,0.493-6.756,1.321c-2.69,1.03-5.091,2.591-7.137,4.638c-3.793,3.795-5.898,8.823-5.966,14.179   c-3.133,0.233-6.05,1.555-8.296,3.802C7.866,63.573,6.5,66.873,6.5,70.384s1.366,6.811,3.847,9.293   c2.481,2.482,5.78,3.85,9.29,3.85h6.869c1.104,0,2-0.896,2-2S27.61,79.527,26.506,79.527z"></path><path d="M117.652,61.09c-2.245-2.246-5.162-3.568-8.295-3.801c-0.068-5.356-2.173-10.383-5.967-14.179   c-3.856-3.858-8.983-5.983-14.436-5.983s-10.58,2.125-14.436,5.983c-0.781,0.781-0.781,2.047,0.001,2.828   c0.78,0.781,2.047,0.781,2.828-0.001c3.101-3.102,7.223-4.811,11.607-4.811s8.506,1.708,11.607,4.811   c3.1,3.103,4.808,7.228,4.808,11.615c0,0.014-0.002,0.029-0.002,0.044c-2.363,0.549-4.536,1.735-6.294,3.494   c-0.781,0.781-0.781,2.048,0,2.829c0.782,0.78,2.047,0.781,2.829,0c1.726-1.727,4.02-2.678,6.46-2.678   c2.439,0,4.734,0.951,6.46,2.678c1.727,1.727,2.677,4.022,2.677,6.465s-0.95,4.739-2.677,6.465c-1.726,1.727-4.02,2.678-6.46,2.678   h-6.712c-1.104,0-2,0.896-2,2s0.896,2,2,2h6.712c3.509,0,6.809-1.367,9.29-3.85c2.48-2.482,3.847-5.783,3.847-9.293   S120.134,63.573,117.652,61.09z"></path><path d="M39.907,90.872c1.104,0,2-0.896,2-2s-0.896-2-2-2h-1.401v-4.307c0-1.104-0.896-2-2-2s-2,0.896-2,2v4.307h-1.401   c-1.104,0-2,0.896-2,2s0.896,2,2,2H39.907z"></path><path d="M48.272,79.719c-1.104,0-2,0.896-2,2s0.896,2,2,2h2.246c0.325,2.246,1.193,4.354,2.543,6.173l-1.6,1.61   c-0.778,0.784-0.774,2.05,0.009,2.829c0.39,0.388,0.9,0.581,1.41,0.581c0.514,0,1.028-0.197,1.419-0.59l1.584-1.595   c1.804,1.351,3.892,2.22,6.118,2.548v2.274c0,1.104,0.896,2,2,2s2-0.896,2-2v-2.274c2.226-0.327,4.314-1.197,6.118-2.548   l1.584,1.595c0.391,0.394,0.905,0.59,1.419,0.59c0.51,0,1.02-0.194,1.41-0.581c0.784-0.779,0.788-2.045,0.009-2.829l-1.6-1.611   c1.35-1.819,2.218-3.927,2.543-6.173h2.245c1.104,0,2-0.896,2-2s-0.896-2-2-2h-2.245c-0.325-2.247-1.194-4.356-2.544-6.175   l1.602-1.616c0.778-0.784,0.773-2.05-0.012-2.828c-0.784-0.777-2.049-0.773-2.828,0.012l-1.584,1.598   c-1.803-1.35-3.891-2.219-6.117-2.546v-2.28c0-1.104-0.896-2-2-2s-2,0.896-2,2v2.28c-2.225,0.327-4.313,1.196-6.117,2.546   l-1.584-1.598c-0.776-0.784-2.043-0.789-2.828-0.012c-0.784,0.777-0.79,2.044-0.012,2.828l1.602,1.616   c-1.35,1.82-2.219,3.929-2.544,6.175H48.272z M57.186,74.842c1.82-1.832,4.24-2.841,6.814-2.841s4.994,1.009,6.813,2.841   c1.824,1.836,2.829,4.278,2.829,6.877s-1.004,5.041-2.829,6.876c-1.82,1.833-4.24,2.842-6.813,2.842   c-2.573,0-4.994-1.009-6.814-2.842c-1.824-1.836-2.829-4.278-2.829-6.876S55.362,76.678,57.186,74.842z"></path><path d="M86.945,56.607h-45.89c-3.612,0-6.55,2.938-6.55,6.55v9.409h-1.401c-1.104,0-2,0.896-2,2s0.896,2,2,2h6.803   c1.104,0,2-0.896,2-2s-0.896-2-2-2h-1.401v-9.409c0-1.406,1.144-2.55,2.55-2.55h45.89c1.406,0,2.55,1.144,2.55,2.55v37.118   c0,1.406-1.144,2.55-2.55,2.55h-45.89c-1.406,0-2.55-1.144-2.55-2.55v-3.403c0-1.104-0.896-2-2-2s-2,0.896-2,2v3.403   c0,3.612,2.938,6.55,6.55,6.55h45.89c3.612,0,6.55-2.938,6.55-6.55V63.157C93.495,59.545,90.557,56.607,86.945,56.607z"></path><path d="M64,87.413c1.517,0,2.943-0.594,4.014-1.672c1.068-1.075,1.656-2.503,1.656-4.021s-0.588-2.947-1.656-4.022   c-1.071-1.078-2.497-1.672-4.014-1.672s-2.943,0.594-4.014,1.672c-1.068,1.075-1.656,2.503-1.656,4.022s0.588,2.946,1.656,4.021   C61.057,86.819,62.483,87.413,64,87.413z M62.824,80.516c0.314-0.317,0.732-0.491,1.176-0.491s0.862,0.174,1.176,0.491   c0.318,0.32,0.494,0.748,0.494,1.203s-0.175,0.882-0.494,1.202c-0.63,0.634-1.723,0.634-2.353,0   c-0.318-0.32-0.494-0.747-0.494-1.202S62.506,80.837,62.824,80.516z"></path></g></svg>