<svg width="25" height="17" viewBox="0 0 25 17" fill="none" xmlns="http://www.w3.org/2000/svg">
<path d="M8.79676 12.9299C8.79676 13.9557 8.36704 14.8905 7.50758 15.7343C6.64813 16.5781 5.75497 17 4.82811 17C3.21031 17 1.99697 16.5202 1.18807 15.5606C0.396023 14.601 0 13.3353 0 11.7635C0 8.61995 0.884732 5.99757 2.6542 3.89635C4.42366 1.79513 6.75767 0.49635 9.65622 0L10.8443 1.68759C8.24907 2.51484 6.47118 3.6399 5.51062 5.06277C5.12302 5.6253 4.92922 6.05547 4.92922 6.35328C4.92922 7.3129 5.19885 7.98297 5.73812 8.3635C6.29424 8.72749 6.74082 9.05839 7.07786 9.3562C7.4149 9.63747 7.70981 9.94355 7.96259 10.2745C8.51871 11.0024 8.79676 11.8876 8.79676 12.9299ZM22.9525 12.9299C22.9525 13.9557 22.5227 14.8905 21.6633 15.7343C20.8038 16.5781 19.9107 17 18.9838 17C17.366 17 16.1527 16.5202 15.3438 15.5606C14.5517 14.601 14.1557 13.3353 14.1557 11.7635C14.1557 8.61995 15.0404 5.99757 16.8099 3.89635C18.5794 1.79513 20.9134 0.49635 23.8119 0L25 1.68759C22.4048 2.51484 20.6269 3.6399 19.6663 5.06277C19.2787 5.6253 19.0849 6.05547 19.0849 6.35328C19.0849 7.3129 19.3546 7.98297 19.8938 8.3635C20.4499 8.72749 20.8965 9.05839 21.2336 9.3562C21.5706 9.63747 21.8655 9.94355 22.1183 10.2745C22.6744 11.0024 22.9525 11.8876 22.9525 12.9299Z" fill="#000021"/>
</svg>
