<svg width="106" height="72" viewBox="0 0 106 72" fill="none" xmlns="http://www.w3.org/2000/svg">
<path d="M37.2983 54.762C37.2983 59.1066 35.4762 63.0657 31.8322 66.6394C28.1881 70.2131 24.4011 72 20.4712 72C13.6117 72 8.46714 69.9679 5.03741 65.9036C1.67914 61.8394 0 56.4788 0 49.8219C0 36.508 3.75126 25.4015 11.2538 16.5022C18.7563 7.60292 28.6525 2.10219 40.9424 0L45.9798 7.14745C34.9761 10.6511 27.4378 15.4161 23.365 21.4423C21.7216 23.8248 20.8999 25.6467 20.8999 26.908C20.8999 30.9723 22.0431 33.8102 24.3296 35.4219C26.6876 36.9635 28.5811 38.365 30.0101 39.6263C31.4392 40.8175 32.6896 42.1139 33.7614 43.5153C36.1193 46.5985 37.2983 50.3474 37.2983 54.762ZM97.3185 54.762C97.3185 59.1066 95.4965 63.0657 91.8524 66.6394C88.2083 70.2131 84.4213 72 80.4914 72C73.632 72 68.4874 69.9679 65.0576 65.9036C61.6994 61.8394 60.0202 56.4788 60.0202 49.8219C60.0202 36.508 63.7715 25.4015 71.274 16.5022C78.7765 7.60292 88.6727 2.10219 100.963 0L106 7.14745C94.9963 10.6511 87.458 15.4161 83.3852 21.4423C81.7418 23.8248 80.9201 25.6467 80.9201 26.908C80.9201 30.9723 82.0634 33.8102 84.3498 35.4219C86.7078 36.9635 88.6013 38.365 90.0303 39.6263C91.4594 40.8175 92.7098 42.1139 93.7816 43.5153C96.1395 46.5985 97.3185 50.3474 97.3185 54.762Z" fill="#000021"/>
</svg>
